<svg xmlns="http://www.w3.org/2000/svg" xmlns:xlink="http://www.w3.org/1999/xlink" xmlns:lucid="lucid" width="339" height="726"><g transform="translate(-715 -86)" lucid:page-tab-id="0_0"><path d="M920 140c22.1 0 40 17.9 40 40s-17.9 40-40 40h-80c-22.1 0-40-17.9-40-40s17.9-40 40-40z" stroke="#333" fill="#fff"/><use xlink:href="#a" transform="matrix(1,0,0,1,805,145) translate(33.025 38.6)"/><path d="M880 221v82.12" stroke="#333" fill="none"/><path d="M880.48 221h-.96v-.5h.96z" stroke="#333" stroke-width=".05" fill="#333"/><path d="M880 317.88l-4.63-14.26h9.26z" stroke="#333" fill="#333"/><path d="M920 320c22.1 0 40 17.9 40 40s-17.9 40-40 40h-80c-22.1 0-40-17.9-40-40s17.9-40 40-40z" stroke="#333" fill="#fff"/><use xlink:href="#b" transform="matrix(1,0,0,1,805,325) translate(41.875 38.6)"/><path d="M880 400.5v82.12M880 400.5v-.5" stroke="#333" fill="none"/><path d="M880 497.38l-4.63-14.26h9.26z" stroke="#333" fill="#333"/><path d="M920 499.5c22.1 0 40 17.9 40 40s-17.9 40-40 40h-80c-22.1 0-40-17.9-40-40s17.9-40 40-40z" stroke="#333" fill="#fff"/><use xlink:href="#c" transform="matrix(1,0,0,1,804.9999999999999,504.5) translate(31 38.6)"/><path d="M880 580v82.12M880 580v-.5" stroke="#333" fill="none"/><path d="M880 676.88l-4.63-14.26h9.26z" stroke="#333" fill="#333"/><path d="M920 679c22.1 0 40 17.9 40 40s-17.9 40-40 40h-80c-22.1 0-40-17.9-40-40s17.9-40 40-40z" stroke="#333" fill="#fff"/><use xlink:href="#d" transform="matrix(1,0,0,1,804.9999999999999,684) translate(20.099999999999994 27.799999999999997)"/><use xlink:href="#e" transform="matrix(1,0,0,1,804.9999999999999,684) translate(47.574999999999996 49.4)"/><defs><path fill="#666" d="M100-194c62-1 85 37 85 99 1 63-27 99-86 99S16-35 15-95c0-66 28-99 85-99zM99-20c44 1 53-31 53-75 0-43-8-75-51-75s-53 32-53 75 10 74 51 75" id="f"/><path fill="#666" d="M135-143c-3-34-86-38-87 0 15 53 115 12 119 90S17 21 10-45l28-5c4 36 97 45 98 0-10-56-113-15-118-90-4-57 82-63 122-42 12 7 21 19 24 35" id="g"/><path fill="#666" d="M177-190C167-65 218 103 67 71c-23-6-38-20-44-43l32-5c15 47 100 32 89-28v-30C133-14 115 1 83 1 29 1 15-40 15-95c0-56 16-97 71-98 29-1 48 16 59 35 1-10 0-23 2-32h30zM94-22c36 0 50-32 50-73 0-42-14-75-50-75-39 0-46 34-46 75s6 73 46 73" id="h"/><path fill="#666" d="M33-154v-36h34v36H33zM33 0v-36h34V0H33" id="i"/><path fill="#666" d="M143 4C61 4 22-44 18-125c-5-107 100-154 193-111 17 8 29 25 37 43l-32 9c-13-25-37-40-76-40-61 0-88 39-88 99 0 61 29 100 91 101 35 0 62-11 79-27v-45h-74v-28h105v86C228-13 192 4 143 4" id="j"/><path fill="#666" d="M114-163C36-179 61-72 57 0H25l-1-190h30c1 12-1 29 2 39 6-27 23-49 58-41v29" id="k"/><path fill="#666" d="M84 4C-5 8 30-112 23-190h32v120c0 31 7 50 39 49 72-2 45-101 50-169h31l1 190h-30c-1-10 1-25-2-33-11 22-28 36-60 37" id="l"/><path fill="#666" d="M115-194c55 1 70 41 70 98S169 2 115 4C84 4 66-9 55-30l1 105H24l-1-265h31l2 30c10-21 28-34 59-34zm-8 174c40 0 45-34 45-75s-6-73-45-74c-42 0-51 32-51 76 0 43 10 73 51 73" id="m"/><g id="a"><use transform="matrix(0.05,0,0,0.05,0,0)" xlink:href="#f"/><use transform="matrix(0.05,0,0,0.05,10,0)" xlink:href="#g"/><use transform="matrix(0.05,0,0,0.05,19,0)" xlink:href="#h"/><use transform="matrix(0.05,0,0,0.05,29,0)" xlink:href="#i"/><use transform="matrix(0.05,0,0,0.05,34,0)" xlink:href="#j"/><use transform="matrix(0.05,0,0,0.05,48,0)" xlink:href="#k"/><use transform="matrix(0.05,0,0,0.05,53.95,0)" xlink:href="#f"/><use transform="matrix(0.05,0,0,0.05,63.95,0)" xlink:href="#l"/><use transform="matrix(0.05,0,0,0.05,73.95,0)" xlink:href="#m"/></g><path fill="#666" d="M30-248c87 1 191-15 191 75 0 78-77 80-158 76V0H30v-248zm33 125c57 0 124 11 124-50 0-59-68-47-124-48v98" id="n"/><path fill="#666" d="M205 0l-28-72H64L36 0H1l101-248h38L239 0h-34zm-38-99l-47-123c-12 45-31 82-46 123h93" id="o"/><path fill="#666" d="M127-220V0H93v-220H8v-28h204v28h-85" id="p"/><g id="b"><use transform="matrix(0.05,0,0,0.05,0,0)" xlink:href="#f"/><use transform="matrix(0.05,0,0,0.05,10,0)" xlink:href="#g"/><use transform="matrix(0.05,0,0,0.05,19,0)" xlink:href="#h"/><use transform="matrix(0.05,0,0,0.05,29,0)" xlink:href="#i"/><use transform="matrix(0.05,0,0,0.05,34,0)" xlink:href="#n"/><use transform="matrix(0.05,0,0,0.05,44.65,0)" xlink:href="#o"/><use transform="matrix(0.05,0,0,0.05,55.29999999999999,0)" xlink:href="#p"/></g><path fill="#666" d="M100-194c63 0 86 42 84 106H49c0 40 14 67 53 68 26 1 43-12 49-29l28 8c-11 28-37 45-77 45C44 4 14-33 15-96c1-61 26-98 85-98zm52 81c6-60-76-77-97-28-3 7-6 17-6 28h103" id="q"/><path fill="#666" d="M85-194c31 0 48 13 60 33l-1-100h32l1 261h-30c-2-10 0-23-3-31C134-8 116 4 85 4 32 4 16-35 15-94c0-66 23-100 70-100zm9 24c-40 0-46 34-46 75 0 40 6 74 45 74 42 0 51-32 51-76 0-42-9-74-50-73" id="r"/><g id="c"><use transform="matrix(0.05,0,0,0.05,0,0)" xlink:href="#f"/><use transform="matrix(0.05,0,0,0.05,10,0)" xlink:href="#g"/><use transform="matrix(0.05,0,0,0.05,19,0)" xlink:href="#h"/><use transform="matrix(0.05,0,0,0.05,29,0)" xlink:href="#i"/><use transform="matrix(0.05,0,0,0.05,34,0)" xlink:href="#j"/><use transform="matrix(0.05,0,0,0.05,48,0)" xlink:href="#q"/><use transform="matrix(0.05,0,0,0.05,58,0)" xlink:href="#f"/><use transform="matrix(0.05,0,0,0.05,68,0)" xlink:href="#r"/><use transform="matrix(0.05,0,0,0.05,78,0)" xlink:href="#q"/></g><path fill="#666" d="M30-248c118-7 216 8 213 122C240-48 200 0 122 0H30v-248zM63-27c89 8 146-16 146-99s-60-101-146-95v194" id="s"/><path fill="#666" d="M141-36C126-15 110 5 73 4 37 3 15-17 15-53c-1-64 63-63 125-63 3-35-9-54-41-54-24 1-41 7-42 31l-33-3c5-37 33-52 76-52 45 0 72 20 72 64v82c-1 20 7 32 28 27v20c-31 9-61-2-59-35zM48-53c0 20 12 33 32 33 41-3 63-29 60-74-43 2-92-5-92 41" id="t"/><path fill="#666" d="M206 0h-36l-40-164L89 0H53L-1-190h32L70-26l43-164h34l41 164 42-164h31" id="u"/><path fill="#666" d="M115-194c53 0 69 39 70 98 0 66-23 100-70 100C84 3 66-7 56-30L54 0H23l1-261h32v101c10-23 28-34 59-34zm-8 174c40 0 45-34 45-75 0-40-5-75-45-74-42 0-51 32-51 76 0 43 10 73 51 73" id="v"/><path fill="#666" d="M24 0v-261h32V0H24" id="w"/><g id="d"><use transform="matrix(0.05,0,0,0.05,0,0)" xlink:href="#f"/><use transform="matrix(0.05,0,0,0.05,10,0)" xlink:href="#g"/><use transform="matrix(0.05,0,0,0.05,19,0)" xlink:href="#h"/><use transform="matrix(0.05,0,0,0.05,29,0)" xlink:href="#i"/><use transform="matrix(0.05,0,0,0.05,34,0)" xlink:href="#s"/><use transform="matrix(0.05,0,0,0.05,46.95,0)" xlink:href="#k"/><use transform="matrix(0.05,0,0,0.05,52.900000000000006,0)" xlink:href="#t"/><use transform="matrix(0.05,0,0,0.05,62.900000000000006,0)" xlink:href="#u"/><use transform="matrix(0.05,0,0,0.05,75.85000000000001,0)" xlink:href="#t"/><use transform="matrix(0.05,0,0,0.05,85.85000000000001,0)" xlink:href="#v"/><use transform="matrix(0.05,0,0,0.05,95.85000000000001,0)" xlink:href="#w"/><use transform="matrix(0.05,0,0,0.05,99.80000000000001,0)" xlink:href="#q"/></g><path fill="#666" d="M87 75C49 33 22-17 22-94c0-76 28-126 65-167h31c-38 41-64 92-64 168S80 34 118 75H87" id="x"/><path fill="#666" d="M212-179c-10-28-35-45-73-45-59 0-87 40-87 99 0 60 29 101 89 101 43 0 62-24 78-52l27 14C228-24 195 4 139 4 59 4 22-46 18-125c-6-104 99-153 187-111 19 9 31 26 39 46" id="y"/><path fill="#666" d="M33-261c38 41 65 92 65 168S71 34 33 75H2C39 34 66-17 66-93S39-220 2-261h31" id="z"/><g id="e"><use transform="matrix(0.05,0,0,0.05,0,0)" xlink:href="#x"/><use transform="matrix(0.05,0,0,0.05,5.95,0)" xlink:href="#y"/><use transform="matrix(0.05,0,0,0.05,18.900000000000002,0)" xlink:href="#l"/><use transform="matrix(0.05,0,0,0.05,28.900000000000002,0)" xlink:href="#v"/><use transform="matrix(0.05,0,0,0.05,38.900000000000006,0)" xlink:href="#f"/><use transform="matrix(0.05,0,0,0.05,48.900000000000006,0)" xlink:href="#z"/></g></defs></g></svg>